<?xml version="1.0" encoding="UTF-8"?>
<svg xmlns="http://www.w3.org/2000/svg" xmlns:xlink="http://www.w3.org/1999/xlink" width="32px" height="32px" viewBox="0 0 32 32" version="1.1">
<g id="surface1">
<path style=" stroke:none;fill-rule:nonzero;fill:rgb(0%,0%,0%);fill-opacity:1;" d="M 24.167969 30.222656 C 23.777344 30.222656 23.390625 30.105469 23.066406 29.882812 L 16.4375 25.441406 L 9.582031 29.882812 C 8.902344 30.339844 8.007812 30.324219 7.339844 29.851562 C 6.671875 29.375 6.371094 28.535156 6.578125 27.742188 L 8.753906 20.0625 L 2.410156 14.914062 C 1.730469 14.410156 1.449219 13.53125 1.710938 12.726562 C 1.96875 11.921875 2.710938 11.375 3.554688 11.359375 L 11.554688 11.058594 L 14.488281 3.429688 C 14.773438 2.652344 15.515625 2.136719 16.34375 2.136719 C 17.171875 2.136719 17.910156 2.652344 18.195312 3.429688 L 20.949219 10.925781 L 29.128906 11.359375 C 29.972656 11.375 30.714844 11.921875 30.976562 12.726562 C 31.234375 13.53125 30.953125 14.410156 30.277344 14.914062 L 24 19.847656 L 26.105469 27.742188 C 26.261719 28.339844 26.128906 28.972656 25.75 29.460938 C 25.371094 29.945312 24.785156 30.226562 24.167969 30.222656 Z M 16.328125 23.625 C 16.722656 23.640625 17.101562 23.769531 17.421875 24 L 24.054688 28.445312 L 22.179688 20.542969 C 21.957031 19.773438 22.230469 18.945312 22.863281 18.453125 L 29.136719 13.519531 L 21.023438 12.863281 C 20.222656 12.832031 19.519531 12.316406 19.246094 11.5625 L 16.488281 4.070312 L 13.386719 11.554688 C 13.113281 12.308594 12.410156 12.820312 11.609375 12.851562 L 3.609375 13.15625 L 9.777344 18.453125 C 10.410156 18.945312 10.679688 19.773438 10.460938 20.542969 L 8.292969 28.222656 L 15.226562 23.992188 C 15.550781 23.777344 15.929688 23.660156 16.320312 23.664062 Z M 16.328125 23.625 "/>
</g>
</svg>
