<?xml version="1.0" encoding="UTF-8"?>
<svg xmlns="http://www.w3.org/2000/svg" xmlns:xlink="http://www.w3.org/1999/xlink" width="32px" height="32px" viewBox="0 0 32 32" version="1.1">
<g id="surface1">
<path style=" stroke:none;fill-rule:nonzero;fill:rgb(0%,0%,0%);fill-opacity:1;" d="M 16.863281 1.90625 L 19.691406 11.136719 C 19.816406 11.507812 20.183594 11.691406 20.554688 11.691406 L 29.785156 11.691406 C 30.707031 11.691406 31.078125 12.921875 30.339844 13.476562 L 22.832031 19.015625 C 22.523438 19.261719 22.398438 19.691406 22.523438 20.0625 L 26.09375 29.539062 C 26.339844 30.398438 25.414062 31.136719 24.675781 30.585938 L 16.617188 24.554688 C 16.308594 24.308594 15.875 24.308594 15.507812 24.554688 L 7.382812 30.585938 C 6.644531 31.136719 5.660156 30.398438 5.96875 29.539062 L 9.414062 20.0625 C 9.539062 19.691406 9.414062 19.261719 9.109375 19.015625 L 1.601562 13.476562 C 0.863281 12.921875 1.292969 11.691406 2.152344 11.691406 L 11.382812 11.691406 C 11.816406 11.691406 12.125 11.570312 12.246094 11.136719 L 15.136719 1.847656 C 15.382812 0.984375 16.617188 1.046875 16.863281 1.90625 Z M 16.863281 1.90625 "/>
</g>
</svg>
